<svg xmlns="http://www.w3.org/2000/svg" width="153" height="32" viewBox="0 0 153 32">
  <g fill="none" fill-rule="evenodd">
    <circle cx="16" cy="16" r="16" fill="#44BEB3"/>
    <path fill="#FFF" d="M9.37476221,8.09638554 C10.7195773,8.09638554 11.8097654,9.1865736 11.8097654,10.5313887 L11.8097654,21.0830691 C11.8097654,22.4278842 10.7195773,23.5180723 9.37476221,23.5180723 C8.02994709,23.5180723 6.93975904,22.4278842 6.93975904,21.0830691 L6.93975904,10.5313887 C6.93975904,9.1865736 8.02994709,8.09638554 9.37476221,8.09638554 Z M23.01078,8.09638554 C24.3555951,8.09638554 25.4457831,9.1865736 25.4457831,10.5313887 L25.4457831,21.0830691 C25.4457831,22.4278842 24.3555951,23.5180723 23.01078,23.5180723 C21.6659648,23.5180723 20.5757768,22.4278842 20.5757768,21.0830691 L20.5757768,10.5313887 C20.5757768,9.1865736 21.6659648,8.09638554 23.01078,8.09638554 Z M16.1927711,8.09638554 C17.5375862,8.09638554 18.6277743,9.1865736 18.6277743,10.5313887 L18.6277743,15.1246901 C18.6277743,16.4695053 17.5375862,17.5596933 16.1927711,17.5596933 C14.847956,17.5596933 13.7577679,16.4695053 13.7577679,15.1246901 L13.7577679,10.5313887 C13.7577679,9.1865736 14.847956,8.09638554 16.1927711,8.09638554 Z"/>
    <path fill="#183861" fill-rule="nonzero" d="M42.04,23 C41.906666,23 41.7933338,22.9533338 41.7,22.86 C41.6066662,22.7666662 41.56,22.653334 41.56,22.52 L41.56,9.5 C41.56,9.3533326 41.6033329,9.2333338 41.69,9.14 C41.7766671,9.0466662 41.8933326,9 42.04,9 L43.66,9 C43.9133346,9 44.1133326,9.1266654 44.26,9.38 L48.12,16.54 L51.98,9.38 C52.1266674,9.1266654 52.3266654,9 52.58,9 L54.18,9 C54.3266674,9 54.4466662,9.0466662 54.54,9.14 C54.6333338,9.2333338 54.68,9.3533326 54.68,9.5 L54.68,22.52 C54.68,22.6666674 54.6333338,22.7833329 54.54,22.87 C54.4466662,22.9566671 54.3266674,23 54.18,23 L52.46,23 C52.326666,23 52.2133338,22.9533338 52.12,22.86 C52.0266662,22.7666662 51.98,22.653334 51.98,22.52 L51.98,13.92 L49.2,19.2 C49.0533326,19.4933348 48.8333348,19.64 48.54,19.64 L47.7,19.64 C47.4199986,19.64 47.1933342,19.4933348 47.02,19.2 L44.24,13.92 L44.24,22.52 C44.24,22.653334 44.1966671,22.7666662 44.11,22.86 C44.0233329,22.9533338 43.9066674,23 43.76,23 L42.04,23 Z M62.06,23.2 C60.5666592,23.2 59.3833377,22.7733376 58.51,21.92 C57.6366623,21.0666624 57.1733336,19.8533412 57.12,18.28 L57.1,17.78 C57.1,16.113325 57.5366623,14.8000048 58.41,13.84 C59.2833377,12.8799952 60.4933256,12.4 62.04,12.4 C63.6266746,12.4 64.8499957,12.8799952 65.71,13.84 C66.5700043,14.8000048 67,16.079992 67,17.68 L67,18.1 C67,18.233334 66.9533338,18.3466662 66.86,18.44 C66.7666662,18.5333338 66.6466674,18.58 66.5,18.58 L59.86,18.58 L59.86,18.74 C59.8866668,19.4866704 60.0899981,20.1033309 60.47,20.59 C60.8500019,21.0766691 61.37333,21.32 62.04,21.32 C62.8000038,21.32 63.4199976,21.0133364 63.9,20.4 C64.0200006,20.2533326 64.113333,20.1633335 64.18,20.13 C64.246667,20.0966665 64.3599992,20.08 64.52,20.08 L66.28,20.08 C66.4000006,20.08 66.5033329,20.113333 66.59,20.18 C66.6766671,20.246667 66.72,20.3399994 66.72,20.46 C66.72,20.7800016 66.5300019,21.1566645 66.15,21.59 C65.7699981,22.0233355 65.2266702,22.3999984 64.52,22.72 C63.8133298,23.0400016 62.993338,23.2 62.06,23.2 Z M64.24,16.88 L64.24,16.84 C64.24,16.0533294 64.0433353,15.4233357 63.65,14.95 C63.2566647,14.4766643 62.7200034,14.24 62.04,14.24 C61.3599966,14.24 60.8266686,14.4766643 60.44,14.95 C60.0533314,15.4233357 59.86,16.0533294 59.86,16.84 L59.86,16.88 L64.24,16.88 Z M72.98,23.2 C71.6333266,23.2 70.6000036,22.7700043 69.88,21.91 C69.1599964,21.0499957 68.766667,19.9000072 68.7,18.46 L68.68,17.8 L68.7,17.14 C68.7533336,15.7266596 69.1433297,14.5833377 69.87,13.71 C70.5966703,12.8366623 71.6333266,12.4 72.98,12.4 C74.2600064,12.4 75.2799962,12.8399956 76.04,13.72 L76.04,9.28 C76.04,9.1333326 76.0866662,9.0166671 76.18,8.93 C76.2733338,8.8433329 76.386666,8.8 76.52,8.8 L78.26,8.8 C78.4066674,8.8 78.5233329,8.8433329 78.61,8.93 C78.6966671,9.0166671 78.74,9.1333326 78.74,9.28 L78.74,22.52 C78.74,22.653334 78.6966671,22.7666662 78.61,22.86 C78.5233329,22.9533338 78.4066674,23 78.26,23 L76.64,23 C76.506666,23 76.3933338,22.9533338 76.3,22.86 C76.2066662,22.7666662 76.16,22.653334 76.16,22.52 L76.16,21.78 C75.426663,22.7266714 74.3666736,23.2 72.98,23.2 Z M73.74,21.04 C74.5000038,21.04 75.0633315,20.7966691 75.43,20.31 C75.7966685,19.8233309 75.9999998,19.2200036 76.04,18.5 C76.0533334,18.3399992 76.06,18.0866684 76.06,17.74 C76.06,17.3799982 76.0533334,17.1200008 76.04,16.96 C76.0133332,16.29333 75.8066686,15.726669 75.42,15.26 C75.0333314,14.793331 74.473337,14.56 73.74,14.56 C72.3133262,14.56 71.5533338,15.4399912 71.46,17.2 L71.44,17.8 L71.46,18.4 C71.5533338,20.1600088 72.3133262,21.04 73.74,21.04 Z M81.8,10.9 C81.666666,10.9 81.5533338,10.8533338 81.46,10.76 C81.3666662,10.6666662 81.32,10.553334 81.32,10.42 L81.32,8.96 C81.32,8.8133326 81.3666662,8.6933338 81.46,8.6 C81.5533338,8.5066662 81.666666,8.46 81.8,8.46 L83.64,8.46 C83.7866674,8.46 83.9066662,8.5066662 84,8.6 C84.0933338,8.6933338 84.14,8.8133326 84.14,8.96 L84.14,10.42 C84.14,10.553334 84.0900005,10.6666662 83.99,10.76 C83.8899995,10.8533338 83.773334,10.9 83.64,10.9 L81.8,10.9 Z M81.88,23 C81.746666,23 81.6333338,22.9533338 81.54,22.86 C81.4466662,22.7666662 81.4,22.653334 81.4,22.52 L81.4,13.08 C81.4,12.9333326 81.4466662,12.8166671 81.54,12.73 C81.6333338,12.6433329 81.746666,12.6 81.88,12.6 L83.58,12.6 C83.713334,12.6 83.8266662,12.6466662 83.92,12.74 C84.0133338,12.8333338 84.06,12.946666 84.06,13.08 L84.06,22.52 C84.06,22.653334 84.0133338,22.7666662 83.92,22.86 C83.8266662,22.9533338 83.713334,23 83.58,23 L81.88,23 Z M91.82,23.2 C90.619994,23.2 89.5933376,23.0200018 88.74,22.66 C87.8866624,22.2999982 87.2400022,21.8266696 86.8,21.24 C86.3599978,20.6533304 86.1266668,20.0133368 86.1,19.32 C86.1,19.2133328 86.1399996,19.1166671 86.22,19.03 C86.3000004,18.9433329 86.3999994,18.9 86.52,18.9 L88.34,18.9 C88.4866674,18.9 88.6066662,18.933333 88.7,19 C88.7933338,19.066667 88.8799996,19.1599994 88.96,19.28 C89.093334,19.7333356 89.3966643,20.1133318 89.87,20.42 C90.3433357,20.7266682 90.9933292,20.88 91.82,20.88 C92.753338,20.88 93.4566643,20.7233349 93.93,20.41 C94.4033357,20.0966651 94.64,19.6666694 94.64,19.12 C94.64,18.7599982 94.5200012,18.4600012 94.28,18.22 C94.0399988,17.9799988 93.6766691,17.7700009 93.19,17.59 C92.7033309,17.4099991 91.9800048,17.1933346 91.02,16.94 C89.4466588,16.5666648 88.293337,16.0733364 87.56,15.46 C86.826663,14.8466636 86.46,13.9666724 86.46,12.82 C86.46,12.0466628 86.6733312,11.3566697 87.1,10.75 C87.5266688,10.1433303 88.1366627,9.6666684 88.93,9.32 C89.7233373,8.9733316 90.6466614,8.8 91.7,8.8 C92.8066722,8.8 93.7633293,8.9933314 94.57,9.38 C95.3766707,9.7666686 95.9899979,10.2499971 96.41,10.83 C96.8300021,11.4100029 97.0533332,11.9866638 97.08,12.56 C97.08,12.6666672 97.0400004,12.7633329 96.96,12.85 C96.8799996,12.9366671 96.7800006,12.98 96.66,12.98 L94.76,12.98 C94.4666652,12.98 94.2666672,12.8600012 94.16,12.62 C94.093333,12.1933312 93.8333356,11.8366681 93.38,11.55 C92.9266644,11.2633319 92.36667,11.12 91.7,11.12 C90.966663,11.12 90.3900021,11.2599986 89.97,11.54 C89.5499979,11.8200014 89.34,12.226664 89.34,12.76 C89.34,13.1200018 89.4466656,13.4199988 89.66,13.66 C89.8733344,13.9000012 90.2066644,14.1099991 90.66,14.29 C91.1133356,14.4700009 91.773329,14.6733322 92.64,14.9 C93.8266726,15.166668 94.7699965,15.466665 95.47,15.8 C96.1700035,16.133335 96.686665,16.5533308 97.02,17.06 C97.353335,17.5666692 97.52,18.2133294 97.52,19 C97.52,19.866671 97.2833357,20.6166635 96.81,21.25 C96.3366643,21.8833365 95.6700043,22.366665 94.81,22.7 C93.9499957,23.033335 92.953339,23.2 91.82,23.2 Z M104.06,23.2 C102.566659,23.2 101.383338,22.7733376 100.51,21.92 C99.6366623,21.0666624 99.1733336,19.8533412 99.12,18.28 L99.1,17.78 C99.1,16.113325 99.5366623,14.8000048 100.41,13.84 C101.283338,12.8799952 102.493326,12.4 104.04,12.4 C105.626675,12.4 106.849996,12.8799952 107.71,13.84 C108.570004,14.8000048 109,16.079992 109,17.68 L109,18.1 C109,18.233334 108.953334,18.3466662 108.86,18.44 C108.766666,18.5333338 108.646667,18.58 108.5,18.58 L101.86,18.58 L101.86,18.74 C101.886667,19.4866704 102.089998,20.1033309 102.47,20.59 C102.850002,21.0766691 103.37333,21.32 104.04,21.32 C104.800004,21.32 105.419998,21.0133364 105.9,20.4 C106.020001,20.2533326 106.113333,20.1633335 106.18,20.13 C106.246667,20.0966665 106.359999,20.08 106.52,20.08 L108.28,20.08 C108.400001,20.08 108.503333,20.113333 108.59,20.18 C108.676667,20.246667 108.72,20.3399994 108.72,20.46 C108.72,20.7800016 108.530002,21.1566645 108.15,21.59 C107.769998,22.0233355 107.22667,22.3999984 106.52,22.72 C105.81333,23.0400016 104.993338,23.2 104.06,23.2 Z M106.24,16.88 L106.24,16.84 C106.24,16.0533294 106.043335,15.4233357 105.65,14.95 C105.256665,14.4766643 104.720003,14.24 104.04,14.24 C103.359997,14.24 102.826669,14.4766643 102.44,14.95 C102.053331,15.4233357 101.86,16.0533294 101.86,16.84 L101.86,16.88 L106.24,16.88 Z M114.14,23.2 C113.459997,23.2 112.836669,23.0633347 112.27,22.79 C111.70333,22.5166653 111.256668,22.146669 110.93,21.68 C110.603332,21.213331 110.44,20.7000028 110.44,20.14 C110.44,19.2333288 110.806663,18.5000028 111.54,17.94 C112.273337,17.3799972 113.279994,17.000001 114.56,16.8 L117.3,16.4 L117.3,15.98 C117.3,15.4066638 117.153335,14.9733348 116.86,14.68 C116.566665,14.3866652 116.100003,14.24 115.46,14.24 C115.019998,14.24 114.666668,14.3199992 114.4,14.48 C114.133332,14.6400008 113.916668,14.8033325 113.75,14.97 L113.42,15.3 C113.366666,15.4600008 113.266667,15.54 113.12,15.54 L111.56,15.54 C111.439999,15.54 111.336667,15.5000004 111.25,15.42 C111.163333,15.3399996 111.12,15.233334 111.12,15.1 C111.133333,14.766665 111.296665,14.3900021 111.61,13.97 C111.923335,13.5499979 112.406663,13.1833349 113.06,12.87 C113.713337,12.5566651 114.519995,12.4 115.48,12.4 C117.053341,12.4 118.199996,12.7533298 118.92,13.46 C119.640004,14.1666702 120,15.0933276 120,16.24 L120,22.52 C120,22.653334 119.956667,22.7666662 119.87,22.86 C119.783333,22.9533338 119.666667,23 119.52,23 L117.86,23 C117.726666,23 117.613334,22.9533338 117.52,22.86 C117.426666,22.7666662 117.38,22.653334 117.38,22.52 L117.38,21.74 C117.086665,22.1666688 116.673336,22.5166653 116.14,22.79 C115.606664,23.0633347 114.940004,23.2 114.14,23.2 Z M114.82,21.28 C115.553337,21.28 116.153331,21.0400024 116.62,20.56 C117.086669,20.0799976 117.32,19.3866712 117.32,18.48 L117.32,18.08 L115.32,18.4 C113.786659,18.6400012 113.02,19.1533294 113.02,19.94 C113.02,20.3666688 113.196665,20.6966655 113.55,20.93 C113.903335,21.1633345 114.326664,21.28 114.82,21.28 Z M123.04,23 C122.906666,23 122.793334,22.9533338 122.7,22.86 C122.606666,22.7666662 122.56,22.653334 122.56,22.52 L122.56,13.1 C122.56,12.9533326 122.606666,12.8333338 122.7,12.74 C122.793334,12.6466662 122.906666,12.6 123.04,12.6 L124.68,12.6 C124.826667,12.6 124.946666,12.6466662 125.04,12.74 C125.133334,12.8333338 125.18,12.9533326 125.18,13.1 L125.18,13.92 C125.84667,13.0399956 126.80666,12.6 128.06,12.6 L128.9,12.6 C129.046667,12.6 129.163333,12.6433329 129.25,12.73 C129.336667,12.8166671 129.38,12.9333326 129.38,13.08 L129.38,14.54 C129.38,14.673334 129.336667,14.7866662 129.25,14.88 C129.163333,14.9733338 129.046667,15.02 128.9,15.02 L127.32,15.02 C126.69333,15.02 126.200002,15.1999982 125.84,15.56 C125.479998,15.9200018 125.3,16.4133302 125.3,17.04 L125.3,22.52 C125.3,22.653334 125.253334,22.7666662 125.16,22.86 C125.066666,22.9533338 124.953334,23 124.82,23 L123.04,23 Z M135.3,23.2 C133.833326,23.2 132.663338,22.7933374 131.79,21.98 C130.916662,21.1666626 130.453334,20.0400072 130.4,18.6 L130.38,17.8 L130.4,17 C130.453334,15.5599928 130.916662,14.4333374 131.79,13.62 C132.663338,12.8066626 133.833326,12.4 135.3,12.4 C136.353339,12.4 137.24333,12.5866648 137.97,12.96 C138.69667,13.3333352 139.236665,13.7899973 139.59,14.33 C139.943335,14.8700027 140.133333,15.3866642 140.16,15.88 C140.173333,16.013334 140.13,16.1266662 140.03,16.22 C139.93,16.3133338 139.813334,16.36 139.68,16.36 L137.9,16.36 C137.753333,16.36 137.646667,16.3300003 137.58,16.27 C137.513333,16.2099997 137.446667,16.1000008 137.38,15.94 C137.179999,15.4333308 136.916668,15.0666678 136.59,14.84 C136.263332,14.6133322 135.846669,14.5 135.34,14.5 C134.659997,14.5 134.130002,14.7133312 133.75,15.14 C133.369998,15.5666688 133.166667,16.2199956 133.14,17.1 L133.12,17.84 L133.14,18.5 C133.22,20.233342 133.953326,21.1 135.34,21.1 C135.860003,21.1 136.279998,20.9900011 136.6,20.77 C136.920002,20.5499989 137.179999,20.1800026 137.38,19.66 C137.433334,19.5133326 137.496666,19.406667 137.57,19.34 C137.643334,19.273333 137.753333,19.24 137.9,19.24 L139.68,19.24 C139.813334,19.24 139.93,19.2866662 140.03,19.38 C140.13,19.4733338 140.173333,19.586666 140.16,19.72 C140.133333,20.186669 139.946668,20.6899973 139.6,21.23 C139.253332,21.7700027 138.720004,22.2333314 138,22.62 C137.279996,23.0066686 136.380005,23.2 135.3,23.2 Z M142.74,23 C142.606666,23 142.493334,22.9533338 142.4,22.86 C142.306666,22.7666662 142.26,22.653334 142.26,22.52 L142.26,9.28 C142.26,9.1333326 142.306666,9.0166671 142.4,8.93 C142.493334,8.8433329 142.606666,8.8 142.74,8.8 L144.56,8.8 C144.706667,8.8 144.823333,8.8433329 144.91,8.93 C144.996667,9.0166671 145.04,9.1333326 145.04,9.28 L145.04,13.84 C145.840004,12.8799952 146.913327,12.4 148.26,12.4 C149.486673,12.4 150.466663,12.8033293 151.2,13.61 C151.933337,14.4166707 152.3,15.5133264 152.3,16.9 L152.3,22.52 C152.3,22.653334 152.256667,22.7666662 152.17,22.86 C152.083333,22.9533338 151.966667,23 151.82,23 L150,23 C149.853333,23 149.733334,22.9533338 149.64,22.86 C149.546666,22.7666662 149.5,22.653334 149.5,22.52 L149.5,17.02 C149.5,16.2466628 149.310002,15.6433355 148.93,15.21 C148.549998,14.7766645 148.00667,14.56 147.3,14.56 C146.619997,14.56 146.073335,14.7799978 145.66,15.22 C145.246665,15.6600022 145.04,16.2599962 145.04,17.02 L145.04,22.52 C145.04,22.653334 144.996667,22.7666662 144.91,22.86 C144.823333,22.9533338 144.706667,23 144.56,23 L142.74,23 Z"/>
  </g>
</svg>
